<?xml version="1.0" encoding="utf-8"?>
<!-- Generator: Adobe Illustrator 19.2.1, SVG Export Plug-In . SVG Version: 6.00 Build 0)  -->
<svg version="1.1" id="Layer_1" xmlns="http://www.w3.org/2000/svg" xmlns:xlink="http://www.w3.org/1999/xlink" x="0px" y="0px"
	 viewBox="0 0 512 192" style="enable-background:new 0 0 512 192;" xml:space="preserve">
<style type="text/css">
	.st0{fill:#FFFFFF;}
</style>
<polygon class="st0" points="170.352,58.085 180.444,58.085 180.444,134.541 170.36,134.541 170.36,163.846 224.044,163.846
	224.044,134.541 214.585,134.541 214.585,112.121 246.749,112.121 246.749,84.076 214.585,84.076 214.585,58.085 242.679,58.085
	242.679,67.128 276.187,67.128 276.187,28.156 170.352,28.156 "/>
<polygon class="st0" points="346.298,28.156 292.606,28.156 292.606,58.085 302.487,58.085 302.487,134.541 292.817,134.541
	292.817,163.846 346.298,163.846 346.298,134.541 336.624,134.541 336.624,58.085 346.298,58.085 "/>
<polygon class="st0" points="427.436,58.176 433.808,58.176 433.775,131.652 433.763,131.64 430.957,134.553 430.949,134.541
	408.929,134.541 406.103,131.648 406.103,58.085 411.785,58.085 411.785,28.156 362.3,28.156 362.3,58.085 371.97,58.085
	371.975,138.19 396.461,163.846 443.384,163.846 467.903,138.19 467.916,58.085 477.582,58.085 477.582,28.156 427.436,28.247 "/>
<g>
	<path class="st0" d="M230.314,170.194H164v-42.088l10.043-0.033V64.508L164,64.512V21.804h118.704v51.7h-46.84v-9.084h-14.853v13.2
		l32.214,0.062v41.021l-32.214-0.066v9.489h9.303V170.194z M167.323,166.871h59.668v-35.421h-9.303v-16.138l32.214,0.062V81.001
		l-32.214-0.066V61.098h21.498v9.084h40.195V25.127H167.323v36.062l10.042-0.008v70.203l-10.042,0.033V166.871z"/>
</g>
<g>
	<path class="st0" d="M352.572,170.185h-66.314v-42.054h9.894V64.433h-9.894V21.817h66.384v42.616h-9.658v63.698h9.588V170.185z
		 M289.581,166.862h59.668v-35.409h-9.588V61.111h9.658V25.139h-59.739v35.971h9.894v70.343h-9.894V166.862z"/>
</g>
<g>
	<path class="st0" d="M446.847,170.202h-53.704l-27.582-28.966V64.415h-9.563V21.798h62.59v42.623h-6.03v63.722h14.849l0.008-63.73
		l-6.757,0.012v-42.62L484,21.798v42.616h-9.745v76.817L446.847,170.202z M394.568,166.879h50.849l25.515-26.97V61.092h9.745V25.121
		l-56.697,0.006v35.971l6.757-0.012l-0.008,70.38h-21.494V61.098h6.03V25.121H359.32v35.971h9.563v78.813L394.568,166.879z"/>
</g>
<path class="st0" d="M92,29.798c-35.346,0-64,28.654-64,64c0,10.443,2.517,20.292,6.953,29H108c7.168,0,13-5.832,13-13v-8.029
	c-2.51,1.892-5.621,3.029-9,3.029c-8.271,0-15-6.729-15-15v-12c0-1.657,1.343-3,3-3s3,1.343,3,3v12c0,4.962,4.038,9,9,9s9-4.038,9-9
	v-12c0-1.657,1.343-3,3-3s3,1.343,3,3v12v20c0,10.477-8.523,19-19,19H38.428c11.429,17.458,31.147,29,53.572,29
	c35.346,0,64-28.654,64-64C156,58.452,127.346,29.798,92,29.798z M98.968,105.849c0.011,0,0.022,0.001,0.032,0
	c1.653,0,2.995,1.337,3,2.991c0.005,1.657-1.334,3.004-2.991,3.009c-0.015,0-0.032,0-0.047,0
	c-10.518,0.001-13.204-10.429-15.775-21.784c-3.614,13.759-6.479,13.774-8.17,13.784c-1.699,0.012-4.585,0.024-8.198-14.247
	c-0.035,0.176-0.069,0.351-0.104,0.526c-2.193,11.169-4.266,21.721-14.678,21.721c-0.015,0-0.03,0-0.045,0
	c-1.657-0.005-2.996-1.352-2.991-3.009c0.005-1.654,1.347-2.991,3-2.991c0.011,0,0.021,0,0.03,0c4.964,0,6.494-5.148,8.797-16.877
	c0.851-4.33,1.814-9.237,3.31-14.019c0.413-1.319,1.674-2.181,3.053-2.099c1.379,0.088,2.521,1.106,2.764,2.467
	c1.353,7.582,3.447,16.281,5.075,20.543c1.615-4.108,3.683-12.368,5.022-19.565c0.253-1.362,1.407-2.374,2.791-2.447
	c1.373-0.07,2.637,0.811,3.033,2.139c1.186,3.981,2.063,7.869,2.911,11.628C91.41,99.258,93.18,105.849,98.968,105.849z"/>
</svg>
