<?xml version="1.0" encoding="utf-8"?>
<!-- Generator: Adobe Illustrator 19.2.1, SVG Export Plug-In . SVG Version: 6.00 Build 0)  -->
<svg version="1.1" id="Layer_1" xmlns="http://www.w3.org/2000/svg" xmlns:xlink="http://www.w3.org/1999/xlink" x="0px" y="0px"
	 viewBox="0 0 800 320" style="enable-background:new 0 0 800 320;" xml:space="preserve">
<style type="text/css">
	.st0{fill:none;stroke:#F2F2F2;stroke-width:4;stroke-miterlimit:10;}
</style>
<circle class="st0" cx="96" cy="160" r="16"/>
<circle class="st0" cx="256" cy="160" r="16"/>
<circle class="st0" cx="384" cy="64" r="16"/>
<circle class="st0" cx="384" cy="160" r="16"/>
<circle class="st0" cx="384" cy="256" r="16"/>
<circle class="st0" cx="576" cy="64" r="16"/>
<circle class="st0" cx="704" cy="128" r="16"/>
<line class="st0" x1="112" y1="162" x2="240" y2="162"/>
<path class="st0" d="M368,64c-95,2-96,96-96,96s-1,95,96,96"/>
<line class="st0" x1="368" y1="162" x2="272" y2="162"/>
<line class="st0" x1="400" y1="66" x2="560" y2="66"/>
<path class="st0" d="M576,80c-4,94-176,80-176,80"/>
<path class="st0" d="M400,256c0,0,172,41,176-176"/>
<path class="st0" d="M592,64c0,0,14,64,96,64"/>
</svg>
